<svg width="75" height="75" viewBox="0 0 75 75" fill="none" xmlns="http://www.w3.org/2000/svg">
<g clip-path="url(#clip0_48_166)">
<path d="M73.8782 46.5685C68.8678 66.6685 48.5033 78.8871 28.432 73.8764C8.3314 68.8661 -3.88715 48.5024 1.1235 28.4314C6.13385 8.33141 26.4688 -3.88715 46.5694 1.1235C66.6407 6.10455 78.8888 26.4682 73.8782 46.5685Z" fill="url(#paint0_linear_48_166)"/>
<path d="M55.355 32.8272C56.0874 27.8467 52.3081 25.1514 47.0933 23.3643L48.7925 16.5967L44.6909 15.5713L43.0503 22.1631C41.9663 21.8994 40.853 21.6357 39.7397 21.4014L41.3804 14.7803L37.2788 13.7549L35.6089 20.4932C34.7007 20.2881 33.8218 20.083 32.9722 19.8779V19.8486L27.2886 18.4424L26.2046 22.8369C26.2046 22.8369 29.2515 23.54 29.1929 23.5693C30.8628 23.9795 31.1558 25.0928 31.0972 25.9717L29.1636 33.6768C29.2808 33.7061 29.4272 33.7354 29.603 33.8232C29.4565 33.7939 29.3101 33.7647 29.1636 33.7061L26.4683 44.4873C26.2632 44.9854 25.7358 45.7471 24.5933 45.4541C24.6226 45.5127 21.605 44.7217 21.605 44.7217L19.5542 49.4385L24.9155 50.7861C25.9116 51.0498 26.8784 51.2842 27.8452 51.5479L26.146 58.374L30.2476 59.3994L31.9468 52.6318C33.0601 52.9248 34.1733 53.2178 35.228 53.4814L33.5581 60.2197L37.6597 61.2451L39.3589 54.4189C46.3901 55.7373 51.6636 55.21 53.8608 48.8525C55.6479 43.7549 53.7729 40.7959 50.0815 38.8623C52.8062 38.2471 54.8276 36.46 55.355 32.8272ZM45.9507 46.0107C44.6909 51.1084 36.0776 48.3545 33.2944 47.6514L35.5503 38.5986C38.3335 39.3018 47.2983 40.6787 45.9507 46.0107ZM47.2397 32.7393C46.0679 37.3975 38.9194 35.0244 36.605 34.4385L38.6558 26.2354C40.9702 26.8213 48.4409 27.9053 47.2397 32.7393Z" fill="white"/>
</g>
<defs>
<linearGradient id="paint0_linear_48_166" x1="3747.97" y1="-1.8" x2="3747.97" y2="7499.24" gradientUnits="userSpaceOnUse">
<stop stop-color="#F9AA4B"/>
<stop offset="1" stop-color="#F7931A"/>
</linearGradient>
<clipPath id="clip0_48_166">
<rect width="75" height="75" fill="white"/>
</clipPath>
</defs>
</svg>
