<svg width="75" height="75" viewBox="0 0 75 75" fill="none" xmlns="http://www.w3.org/2000/svg">
<g clip-path="url(#clip0_48_176)">
<path d="M37.5 75C58.2107 75 75 58.2107 75 37.5C75 16.7893 58.2107 0 37.5 0C16.7893 0 0 16.7893 0 37.5C0 58.2107 16.7893 75 37.5 75Z" fill="#F3BA2F"/>
<path d="M28.3969 33.7594L37.5 24.6563L46.6078 33.7641L51.9047 28.4672L37.5 14.0625L23.1 28.4625L28.3969 33.7594ZM14.0625 37.5L19.3594 32.2031L24.6563 37.5L19.3594 42.7969L14.0625 37.5ZM28.3969 41.2406L37.5 50.3438L46.6078 41.2359L51.9047 46.5305L37.5 60.9375L23.1 46.5375L23.093 46.5305L28.3969 41.2406ZM50.3438 37.5L55.6406 32.2031L60.9375 37.5L55.6406 42.7969L50.3438 37.5ZM42.8719 37.4953H42.8766V37.5L37.5 42.8766L32.1305 37.5094L32.1211 37.5L32.1305 37.493L33.0703 36.5508L33.5273 36.0938L37.5 32.1234L42.8719 37.4953Z" fill="white"/>
</g>
<defs>
<clipPath id="clip0_48_176">
<rect width="75" height="75" fill="white"/>
</clipPath>
</defs>
</svg>
