<svg width="75" height="75" viewBox="0 0 75 75" fill="none" xmlns="http://www.w3.org/2000/svg">
<g clip-path="url(#clip0_48_186)">
<path d="M38.4 24.7125H33.0406V35.275H41.4688V39.6969H33.0406V50.2594H38.6625C40.1063 50.2594 50.5187 50.4219 50.5031 37.9688C50.4875 25.5156 40.4031 24.7125 38.4 24.7125ZM37.5 0C16.7906 0 0 16.7906 0 37.5C0 58.2094 16.7906 75 37.5 75C58.2094 75 75 58.2094 75 37.5C75 16.7906 58.2094 0 37.5 0ZM38.975 57.7531H25.3938V39.6969H20.6062V35.275H25.3938V17.2219H37.05C39.8063 17.2219 58.0719 16.65 58.0719 37.8281C58.0688 59.3531 38.975 57.7531 38.975 57.7531Z" fill="black"/>
</g>
<defs>
<clipPath id="clip0_48_186">
<rect width="75" height="75" fill="white"/>
</clipPath>
</defs>
</svg>
