<svg width="75" height="75" viewBox="0 0 75 75" fill="none" xmlns="http://www.w3.org/2000/svg">
<g clip-path="url(#clip0_48_184)">
<path d="M37.5 0C30.0832 0 22.833 2.19934 16.6661 6.31989C10.4993 10.4404 5.69282 16.2971 2.85453 23.1494C0.0162482 30.0016 -0.726377 37.5416 0.720569 44.8159C2.16751 52.0902 5.73904 58.772 10.9835 64.0165C16.228 69.261 22.9098 72.8325 30.1841 74.2794C37.4584 75.7264 44.9984 74.9838 51.8506 72.1455C58.7029 69.3072 64.5596 64.5007 68.6801 58.3339C72.8007 52.167 75 44.9168 75 37.5C75 27.5544 71.0491 18.0161 64.0165 10.9835C56.9839 3.95088 47.4456 0 37.5 0ZM36.6813 11.4938H44.7563C44.9214 11.494 45.0843 11.5323 45.2322 11.6059C45.3801 11.6795 45.509 11.7862 45.6089 11.9178C45.7087 12.0494 45.7768 12.2023 45.8078 12.3645C45.8388 12.5268 45.8318 12.694 45.7875 12.8531L39.4438 34.4719L45.3969 32.6531L44.1219 36.9813L38.1094 38.7313L34.2094 51.9H55.0719C55.2372 51.9009 55.4001 51.94 55.5478 52.0144C55.6956 52.0887 55.8241 52.1962 55.9233 52.3284C56.0226 52.4607 56.0899 52.6141 56.12 52.7767C56.1501 52.9393 56.1422 53.1066 56.0969 53.2656L54.2781 59.5156C54.1906 59.8127 54.0095 60.0736 53.7617 60.2594C53.514 60.4452 53.2128 60.546 52.9031 60.5469H21.0406L26.425 42.3531L20.4688 44.1656L21.7813 39.9125L27.75 38.1L35.3188 12.5375C35.4018 12.2386 35.58 11.9749 35.8265 11.7866C36.073 11.5982 36.3742 11.4954 36.6844 11.4938" fill="black"/>
</g>
<defs>
<clipPath id="clip0_48_184">
<rect width="75" height="75" fill="white"/>
</clipPath>
</defs>
</svg>
