<svg width="75" height="75" viewBox="0 0 75 75" fill="none" xmlns="http://www.w3.org/2000/svg">
<g clip-path="url(#clip0_48_188)">
<path fill-rule="evenodd" clip-rule="evenodd" d="M37.5 75C47.4456 75 56.9839 71.0491 64.0165 64.0165C71.0491 56.9839 75 47.4456 75 37.5C75 27.5544 71.0491 18.0161 64.0165 10.9835C56.9839 3.95088 47.4456 0 37.5 0C27.5544 0 18.0161 3.95088 10.9835 10.9835C3.95088 18.0161 0 27.5544 0 37.5C0 47.4456 3.95088 56.9839 10.9835 64.0165C18.0161 71.0491 27.5544 75 37.5 75ZM19.8321 16.7732C20.1431 16.4622 20.5122 16.2155 20.9185 16.0472C21.3248 15.8789 21.7602 15.7922 22.2 15.7922C22.6398 15.7922 23.0752 15.8789 23.4815 16.0472C23.8878 16.2155 24.2569 16.4622 24.5679 16.7732L35.5232 27.7286L35.5339 27.7393C35.7914 27.9988 36.0977 28.2047 36.4351 28.3453C36.7725 28.4858 37.1345 28.5582 37.5 28.5582C37.8655 28.5582 38.2275 28.4858 38.5649 28.3453C38.9023 28.2047 39.2086 27.9988 39.4661 27.7393L39.4768 27.7286L50.4321 16.7679C50.7396 16.4421 51.1094 16.1813 51.5195 16.001C51.9296 15.8207 52.3717 15.7245 52.8197 15.7182C53.2676 15.7118 53.7123 15.7954 54.1273 15.964C54.5424 16.1327 54.9194 16.3829 55.236 16.6998C55.5526 17.0168 55.8023 17.3941 55.9705 17.8093C56.1386 18.2245 56.2218 18.6693 56.2149 19.1172C56.208 19.5652 56.1114 20.0072 55.9306 20.4171C55.7498 20.827 55.4886 21.1964 55.1625 21.5036L44.2232 32.4536L44.2179 32.4589C43.338 33.3452 42.2914 34.0487 41.1384 34.5287C39.9855 35.0088 38.7489 35.2559 37.5 35.2559C36.2511 35.2559 35.0145 35.0088 33.8616 34.5287C32.7086 34.0487 31.662 33.3452 30.7821 32.4589L19.8321 21.5089C19.5211 21.198 19.2744 20.8289 19.1061 20.4226C18.9378 20.0163 18.8512 19.5808 18.8512 19.1411C18.8512 18.7013 18.9378 18.2658 19.1061 17.8596C19.2744 17.4533 19.5211 17.0841 19.8321 16.7732ZM36.4393 46.6554C36.9473 46.4467 37.5057 46.3928 38.0442 46.5005C38.5827 46.6082 39.0774 46.8727 39.4661 47.2607L39.4768 47.2714L50.4321 58.2268C50.7396 58.5526 51.1094 58.8134 51.5195 58.9937C51.9296 59.174 52.3717 59.2701 52.8197 59.2765C53.2676 59.2828 53.7123 59.1992 54.1273 59.0306C54.5424 58.862 54.9194 58.6118 55.236 58.2948C55.5526 57.9779 55.8023 57.6006 55.9705 57.1854C56.1386 56.7701 56.2218 56.3253 56.2149 55.8774C56.208 55.4295 56.1114 54.9875 55.9306 54.5776C55.7498 54.1677 55.4886 53.7982 55.1625 53.4911L44.2232 42.5464L44.2179 42.5411C43.338 41.6548 42.2914 40.9513 41.1384 40.4713C39.9855 39.9912 38.7489 39.7441 37.5 39.7441C36.2511 39.7441 35.0145 39.9912 33.8616 40.4713C32.7086 40.9513 31.662 41.6548 30.7821 42.5411L19.8321 53.4911C19.5212 53.802 19.2745 54.1712 19.1062 54.5775C18.938 54.9837 18.8513 55.4192 18.8513 55.8589C18.8513 56.2987 18.938 56.7341 19.1062 57.1404C19.2745 57.5467 19.5212 57.9158 19.8321 58.2268C20.1431 58.5377 20.5122 58.7844 20.9185 58.9527C21.3248 59.121 21.7602 59.2076 22.2 59.2076C22.6398 59.2076 23.0752 59.121 23.4815 58.9527C23.8878 58.7844 24.2569 58.5377 24.5679 58.2268L35.5232 47.2714L35.5339 47.2607C35.7884 47.0022 36.0928 46.7981 36.4286 46.6607L36.4393 46.6554Z" fill="black"/>
</g>
<defs>
<clipPath id="clip0_48_188">
<rect width="75" height="75" fill="white"/>
</clipPath>
</defs>
</svg>
