<svg width="75" height="75" viewBox="0 0 75 75" fill="none" xmlns="http://www.w3.org/2000/svg">
<path d="M59.7657 23.2719C59.3741 23.6251 58.868 23.8248 58.3407 23.8344H8.26261C6.48448 23.8344 5.58761 21.8032 6.81886 20.6157L15.0439 12.6844C15.4261 12.3152 15.9344 12.1052 16.4657 12.0969H66.7407C68.5345 12.0969 69.4126 14.1469 68.1657 15.3407L59.7657 23.2719Z" fill="url(#paint0_linear_48_190)"/>
<path d="M59.7657 62.3564C59.3718 62.7039 58.866 62.898 58.3407 62.9033H8.26261C6.48448 62.9033 5.58761 60.8876 6.81886 59.697L15.0439 51.747C15.4278 51.3831 15.9368 51.1806 16.4657 51.1814H66.7407C68.5345 51.1814 69.4126 53.2127 68.1657 54.4002L59.7657 62.3564Z" fill="url(#paint1_linear_48_190)"/>
<path d="M59.7657 32.197C59.3718 31.8496 58.866 31.6554 58.3407 31.6501H8.26261C6.48448 31.6501 5.58761 33.6658 6.81886 34.8533L15.0439 42.8064C15.4347 43.1588 15.9395 43.3585 16.4657 43.3689H66.7407C68.5345 43.3689 69.4126 41.3376 68.1657 40.1501L59.7657 32.197Z" fill="url(#paint2_linear_48_190)"/>
<defs>
<linearGradient id="paint0_linear_48_190" x1="6.25323" y1="186.947" x2="70.3439" y2="186.359" gradientUnits="userSpaceOnUse">
<stop stop-color="#599DB0"/>
<stop offset="1" stop-color="#47F8C3"/>
</linearGradient>
<linearGradient id="paint1_linear_48_190" x1="6.25323" y1="27.6658" x2="69.9345" y2="27.1783" gradientUnits="userSpaceOnUse">
<stop stop-color="#C44FE2"/>
<stop offset="1" stop-color="#73B0D0"/>
</linearGradient>
<linearGradient id="paint2_linear_48_190" x1="9.85011" y1="37.5095" x2="66.3282" y2="37.5095" gradientUnits="userSpaceOnUse">
<stop stop-color="#778CBF"/>
<stop offset="1" stop-color="#5DCDC9"/>
</linearGradient>
</defs>
</svg>
