<svg width="75" height="75" viewBox="0 0 75 75" fill="none" xmlns="http://www.w3.org/2000/svg">
<g clip-path="url(#clip0_48_180)">
<path d="M37.5 75C58.2107 75 75 58.2107 75 37.5C75 16.7893 58.2107 0 37.5 0C16.7893 0 0 16.7893 0 37.5C0 58.2107 16.7893 75 37.5 75Z" fill="#26A17B"/>
<path fill-rule="evenodd" clip-rule="evenodd" d="M42.0047 40.7413V40.7366C41.7469 40.7554 40.418 40.8351 37.4531 40.8351C35.0859 40.8351 33.4195 40.7647 32.8336 40.7366V40.7437C23.7211 40.3429 16.9195 38.7562 16.9195 36.8577C16.9195 34.9593 23.7211 33.3749 32.8336 32.9671V39.164C33.4289 39.2062 35.1352 39.3069 37.493 39.3069C40.3219 39.3069 41.7398 39.1897 42.0047 39.1663V32.9718C51.0984 33.3772 57.8836 34.964 57.8836 36.8577C57.8836 38.7562 51.0984 40.3382 42.0047 40.7413ZM42.0047 32.3272V26.7819H54.6937V18.3257H20.1445V26.7819H32.8336V32.3249C22.5211 32.7983 14.7656 34.8421 14.7656 37.289C14.7656 39.7358 22.5211 41.7772 32.8336 42.253V60.0233H42.0047V42.2483C52.3008 41.7749 60.0375 39.7335 60.0375 37.289C60.0375 34.8444 52.3008 32.803 42.0047 32.3272Z" fill="white"/>
</g>
<defs>
<clipPath id="clip0_48_180">
<rect width="75" height="75" fill="white"/>
</clipPath>
</defs>
</svg>
