<svg viewBox="0 0 16 16" fill="none" xmlns="http://www.w3.org/2000/svg" data-sentry-element="svg" data-sentry-component="GoogleIcon" data-sentry-source-file="Icon.tsx"><path d="M7.99987 6.54543V9.64362H12.3053C12.1163 10.64 11.5489 11.4837 10.698 12.0509L13.2944 14.0655C14.8071 12.6692 15.6798 10.6182 15.6798 8.18188C15.6798 7.61461 15.6289 7.06911 15.5344 6.54552L7.99987 6.54543Z" fill="#4285F4" data-sentry-element="path" data-sentry-source-file="Icon.tsx"></path><path d="M3.51645 9.52268L2.93087 9.97093L0.858112 11.5854C2.17447 14.1963 4.87245 16 7.9997 16C10.1596 16 11.9705 15.2873 13.2942 14.0655L10.6978 12.0509C9.98512 12.5309 9.07602 12.8219 7.9997 12.8219C5.91971 12.8219 4.15249 11.4182 3.51972 9.5273L3.51645 9.52268Z" fill="#34A853" data-sentry-element="path" data-sentry-source-file="Icon.tsx"></path><path d="M0.858119 4.41455C0.312695 5.49087 0 6.70543 0 7.99995C0 9.29448 0.312695 10.509 0.858119 11.5854C0.858119 11.5926 3.51998 9.51991 3.51998 9.51991C3.35998 9.03991 3.26541 8.53085 3.26541 7.99987C3.26541 7.46889 3.35998 6.95983 3.51998 6.47984L0.858119 4.41455Z" fill="#FBBC05" data-sentry-element="path" data-sentry-source-file="Icon.tsx"></path><path d="M7.99987 3.18545C9.17806 3.18545 10.2253 3.59271 11.0617 4.37818L13.3526 2.0873C11.9635 0.792777 10.1599 0 7.99987 0C4.87262 0 2.17448 1.79636 0.858119 4.41455L3.51989 6.48001C4.15258 4.58908 5.91988 3.18545 7.99987 3.18545Z" fill="#EA4335" data-sentry-element="path" data-sentry-source-file="Icon.tsx"></path></svg>